# xmcd
#
# Track frame offsets: 
#        150
#        20117
#        43038
#        60135
#        80262
#        99115
#        118863
#        140519
#
# Disc length: 2145 seconds
#
# Revision: 1
# Processed by: cddbd v1.5.1PL0 Copyright (c) Steve Scherf et al.
# Submitted via: ExactAudioCopy v0.95a4
#
DISCID=5e085f08
DTITLE=PE'Z - Unknown Album
DYEAR=2005
DGENRE=Jazz
TTITLE0=WILD GYPSY
TTITLE1=Unknown Track 1
TTITLE2=POP'N ROLL
TTITLE3=NO.6
TTITLE4=Unknown Track 2
TTITLE5=AUCTION #2
TTITLE6=NA!NA!NA!
TTITLE7=Unknown Track 3 (TSU KU SHI N BOW Ver.)
EXTD=YEAR: 2005
EXTT0=
EXTT1=
EXTT2=
EXTT3=
EXTT4=
EXTT5=
EXTT6=
EXTT7=
PLAYORDER=
